<?xml version="1.0" encoding="UTF-8" standalone="no"?>
<!DOCTYPE svg PUBLIC "-//W3C//DTD SVG 1.1//EN" "http://www.w3.org/Graphics/SVG/1.1/DTD/svg11.dtd">
<!-- Created with Vectornator (http://vectornator.io/) -->
<svg height="100%" stroke-miterlimit="10" style="fill-rule:nonzero;clip-rule:evenodd;stroke-linecap:round;stroke-linejoin:round;" version="1.1" viewBox="491.121 288.925 237.024 163.037" width="100%" xml:space="preserve" xmlns="http://www.w3.org/2000/svg" xmlns:vectornator="http://vectornator.io" xmlns:xlink="http://www.w3.org/1999/xlink">
<defs/>
<g id="Layer">
<g opacity="1">
<text fill="#0a0a0a" font-family="HelveticaNeue" font-size="16.276" opacity="1" stroke="none" text-anchor="start" transform="matrix(0.999996 0.00269849 -0.00269849 0.999996 563.364 432.826)" x="0" y="0">
<tspan textLength="154.948" x="6.1678" y="15.4948"><![CDATA[Your perfume advisor]]></tspan>
</text>
<g opacity="1">
<g opacity="1">
<path d="M671.758 292.515C670.737 289.243 667.42 288.798 661.81 291.18L514.522 353.694C510.313 355.48 506.616 358.902 503.429 363.96L492.722 390.734C490.938 395.196 491.959 398.468 495.786 400.548L518.745 413.033C523.975 414.519 528.693 414.368 532.902 412.582L680.19 350.068C685.801 347.686 688.095 344.86 687.074 341.588L671.758 292.515Z" fill="#ffffff" fill-rule="nonzero" opacity="1" stroke="#0a0a0a" stroke-linecap="butt" stroke-linejoin="miter" stroke-width="1.5"/>
<path d="M666.791 322.41L534.232 378.673" fill="#000000" fill-rule="nonzero" opacity="1" stroke="#0a0a0a" stroke-linecap="butt" stroke-linejoin="miter" stroke-width="1"/>
</g>
<g opacity="1">
<path d="M702.261 327.277C701.742 323.849 698.543 322.739 692.662 323.948L520.662 359.315C516.252 360.222 512.101 362.843 508.209 367.178L493.678 391.377C491.257 395.411 491.775 398.839 495.234 401.663L515.985 418.608C520.914 421.13 525.584 421.937 529.994 421.03L701.994 385.663C707.875 384.454 710.555 382.135 710.037 378.707L702.261 327.277Z" fill="#ffffff" fill-rule="nonzero" opacity="1" stroke="#0a0a0a" stroke-linecap="butt" stroke-linejoin="miter" stroke-width="1.5"/>
<path d="M692.918 355.713L536.354 387.905" fill="#000000" fill-rule="nonzero" opacity="1" stroke="#0a0a0a" stroke-linecap="butt" stroke-linejoin="miter" stroke-width="1"/>
</g>
<g opacity="1">
<path d="M727.396 371.316C727.396 367.834 724.41 366.094 718.439 366.094L525.872 366.093C521.394 366.093 516.916 367.834 512.437 371.316L494.524 392.205C491.539 395.686 491.539 399.168 494.524 402.649L512.437 423.539C516.916 427.02 521.394 428.761 525.872 428.761L718.439 428.761C724.41 428.761 727.396 427.02 727.396 423.539L727.396 371.316Z" fill="#ffffff" fill-rule="nonzero" opacity="1" stroke="#0a0a0a" stroke-linecap="butt" stroke-linejoin="miter" stroke-width="1.5"/>
<path d="M713.961 397.427L537.068 397.427" fill="#000000" fill-rule="nonzero" opacity="1" stroke="#0a0a0a" stroke-linecap="butt" stroke-linejoin="miter" stroke-width="1"/>
</g>
</g>
<g opacity="1">
<text fill="#0a0a0a" font-family="HelveticaNeue" font-size="80" opacity="1" stroke="none" text-anchor="start" transform="matrix(1 0 0 1 529.908 351.013)" x="0" y="0">
<tspan textLength="143.68" x="0" y="76.16"><![CDATA[Blot]]></tspan>
</text>
<text fill="#0a0a0a" font-family="HelveticaNeue" font-size="80" opacity="1" stroke="none" text-anchor="start" transform="matrix(-1 1.22465e-16 1.22465e-16 1 713.908 351.013)" x="0" y="0">
<tspan textLength="25.2" x="0" y="76.16"><![CDATA[t]]></tspan>
</text>
<text fill="#0a0a0a" font-family="HelveticaNeue" font-size="80" opacity="1" stroke="none" text-anchor="start" transform="matrix(1 0 0 1 669.823 316.884)" x="0" y="0">
<tspan textLength="22.24" x="0" y="76.16"><![CDATA[.]]></tspan>
</text>
<path d="M714.741 397.901L535.719 397.801" fill="none" opacity="1" stroke="#ffffff" stroke-linecap="butt" stroke-linejoin="miter" stroke-width="2.5"/>
<path d="M666.559 424.274L696.559 424.174" fill="none" opacity="1" stroke="#0a0a0a" stroke-linecap="butt" stroke-linejoin="miter" stroke-width="6"/>
</g>
</g>
</g>
</svg>
